<?xml version="1.0" encoding="utf-8"?>
<!-- Generator: Adobe Illustrator 23.0.1, SVG Export Plug-In . SVG Version: 6.00 Build 0)  -->
<svg version="1.1" id="Layer_1" xmlns="http://www.w3.org/2000/svg" xmlns:xlink="http://www.w3.org/1999/xlink" x="0px" y="0px"
	 viewBox="0 0 24 24" style="enable-background:new 0 0 24 24;" xml:space="preserve">
<style type="text/css">
	.st0{fill:#FFFFFF;}
</style>
<title>Python icon</title>
<path class="st0" d="M14.3,0.2l0.9,0.2l0.7,0.3l0.6,0.3L17,1.3l0.3,0.3l0.3,0.3l0.2,0.3l0.1,0.3l0,0.3l0,0.2l0,0.1v5.3l0,0.6
	l-0.1,0.6l-0.2,0.5l-0.3,0.4l-0.3,0.3l-0.3,0.3l-0.4,0.2l-0.4,0.1l-0.3,0.1l-0.3,0.1l-0.3,0l-0.2,0h-6l-0.7,0.1l-0.6,0.1l-0.5,0.2
	l-0.4,0.3l-0.3,0.3L6,13l-0.2,0.4l-0.2,0.4l-0.1,0.4l-0.1,0.3l0,0.3l0,0.2v3.1H3.2l-0.2,0l-0.3-0.1l-0.3-0.1l-0.3-0.2l-0.4-0.3
	l-0.4-0.4L1,16.5l-0.3-0.6l-0.3-0.7l-0.2-0.9l-0.1-1.1L0,12l0.1-1.2l0.2-1l0.2-0.9l0.3-0.7l0.4-0.6l0.4-0.4L2,6.8l0.4-0.2l0.4-0.2
	l0.4-0.1l0.3-0.1l0.2,0h0.2l0.1,0h8.2V5.4H6.2l0-2.8l0-0.4L6.3,2l0.1-0.3l0.2-0.3l0.3-0.3l0.3-0.2l0.4-0.2l0.4-0.2l0.5-0.2L9,0.2
	l0.6-0.1l0.7-0.1l0.8,0L12,0l1.3,0.1C13.2,0.1,14.3,0.2,14.3,0.2z M8,2.2L7.8,2.5L7.7,2.9l0.1,0.4L8,3.7l0.3,0.2L8.8,4l0.4-0.1
	l0.3-0.2l0.2-0.3l0.1-0.4L9.7,2.5L9.5,2.2L9.2,1.9L8.8,1.9L8.3,1.9L8,2.2z M21.1,6.1l0.3,0.1l0.3,0.1l0.4,0.2l0.4,0.3l0.4,0.3
	l0.4,0.5l0.3,0.6l0.3,0.7l0.2,0.9l0.1,1l0,1.2l-0.1,1.2l-0.2,1l-0.2,0.9l-0.3,0.7L23,16.4l-0.4,0.5l-0.4,0.3l-0.4,0.2l-0.4,0.2
	L21,17.7l-0.3,0l-0.2,0l-0.2,0H12v0.8h5.8l0,2.8l0,0.4l0,0.3l-0.1,0.3l-0.2,0.3l-0.3,0.3L17,23.1l-0.4,0.2l-0.4,0.2l-0.5,0.1
	l-0.6,0.1l-0.6,0.1l-0.7,0.1L13,24l-0.8,0l-1.3,0l-1.1-0.1l-0.9-0.2l-0.7-0.3l-0.6-0.3l-0.4-0.3l-0.3-0.3l-0.3-0.3l-0.2-0.3
	l-0.1-0.3l0-0.3l0-0.2l0-0.1v-5.3l0.1-0.6l0.1-0.5l0.2-0.5l0.3-0.4l0.3-0.3l0.3-0.2l0.3-0.2l0.3-0.1l0.3-0.1l0.3-0.1l0.3,0l0.2,0
	l0.1,0h5.8l0.7-0.1l0.6-0.1l0.5-0.2l0.4-0.3l0.3-0.3l0.3-0.4l0.2-0.4l0.1-0.4l0.1-0.4l0.1-0.3l0-0.3l0-0.2V6.1h2.1l0.1,0
	C20.9,6.1,21.1,6.1,21.1,6.1z M14.6,20.4l-0.2,0.3l-0.1,0.4l0.1,0.4l0.2,0.3l0.3,0.2l0.4,0.1l0.4-0.1l0.3-0.2l0.2-0.3l0.1-0.4
	l-0.1-0.4l-0.2-0.3l-0.3-0.2l-0.4-0.1L15,20.1L14.6,20.4z"/>
</svg>
