<?xml version="1.0" encoding="utf-8"?>
<!-- Generator: Adobe Illustrator 23.0.1, SVG Export Plug-In . SVG Version: 6.00 Build 0)  -->
<svg version="1.1"
	 id="svg2" xmlns:cc="http://creativecommons.org/ns#" xmlns:dc="http://purl.org/dc/elements/1.1/" xmlns:rdf="http://www.w3.org/1999/02/22-rdf-syntax-ns#" xmlns:svg="http://www.w3.org/2000/svg"
	 xmlns="http://www.w3.org/2000/svg" xmlns:xlink="http://www.w3.org/1999/xlink" x="0px" y="0px" viewBox="0 0 387 103"
	 style="enable-background:new 0 0 387 103;" xml:space="preserve">
<style type="text/css">
	.st0{clip-path:url(#SVGID_2_);}
	.st1{fill:#FFFFFF;}
	.st2{clip-path:url(#SVGID_4_);}
	.st3{clip-path:url(#SVGID_6_);}
	.st4{clip-path:url(#SVGID_8_);}
	.st5{clip-path:url(#SVGID_10_);}
</style>
<g id="surface839">
	<g>
		<defs>
			<rect id="SVGID_1_" x="0.1" y="2" width="21.9" height="23"/>
		</defs>
		<clipPath id="SVGID_2_">
			<use xlink:href="#SVGID_1_"  style="overflow:visible;"/>
		</clipPath>
		<g id="g22" class="st0">
			<path id="path24" class="st1" d="M21.8,13.5c0,6.2-4.9,11.3-10.9,11.3C4.9,24.8,0,19.7,0,13.5C0,7.3,4.9,2.2,10.9,2.2
				C16.9,2.2,21.8,7.3,21.8,13.5"/>
		</g>
	</g>
	<g>
		<defs>
			<rect id="SVGID_3_" x="0.1" y="40" width="21.9" height="24"/>
		</defs>
		<clipPath id="SVGID_4_">
			<use xlink:href="#SVGID_3_"  style="overflow:visible;"/>
		</clipPath>
		<g id="g26" class="st2">
			<path id="path28" class="st1" d="M21.8,51.9c0,6.2-4.9,11.3-10.9,11.3C4.9,63.2,0,58.2,0,51.9c0-6.2,4.9-11.3,10.9-11.3
				C16.9,40.7,21.8,45.7,21.8,51.9"/>
		</g>
	</g>
	<g>
		<defs>
			<rect id="SVGID_5_" x="0.1" y="79" width="21.9" height="23"/>
		</defs>
		<clipPath id="SVGID_6_">
			<use xlink:href="#SVGID_5_"  style="overflow:visible;"/>
		</clipPath>
		<g id="g30" class="st3">
			<path id="path32" class="st1" d="M21.8,90.4c0,6.2-4.9,11.3-10.9,11.3c-6,0-10.9-5.1-10.9-11.3s4.9-11.3,10.9-11.3
				C16.9,79.1,21.8,84.2,21.8,90.4"/>
		</g>
	</g>
	<path id="path34" class="st1" d="M59.9,51.9c0,6.2-4.9,11.3-10.9,11.3s-10.9-5.1-10.9-11.3c0-6.2,4.9-11.3,10.9-11.3
		S59.9,45.7,59.9,51.9"/>
	<path id="path36" class="st1" d="M59.9,13.5c0,6.2-4.9,11.3-10.9,11.3s-10.9-5.1-10.9-11.3C38.1,7.3,43,2.2,49,2.2
		S59.9,7.3,59.9,13.5"/>
	<path id="path38" class="st1" d="M98.1,51.9c0,6.2-4.9,11.3-10.9,11.3s-10.9-5.1-10.9-11.3c0-6.2,4.9-11.3,10.9-11.3
		S98.1,45.7,98.1,51.9"/>
	<path id="path40" class="st1" d="M98.1,13.5c0,6.2-4.9,11.3-10.9,11.3s-10.9-5.1-10.9-11.3c0-6.2,4.9-11.3,10.9-11.3
		S98.1,7.3,98.1,13.5"/>
	<path id="path42" class="st1" d="M98.1,90.4c0,6.2-4.9,11.3-10.9,11.3s-10.9-5.1-10.9-11.3s4.9-11.3,10.9-11.3S98.1,84.2,98.1,90.4
		"/>
	<path id="path44" class="st1" d="M59.9,90.4c0,6.2-4.9,11.3-10.9,11.3s-10.9-5.1-10.9-11.3S43,79.1,49,79.1S59.9,84.2,59.9,90.4"/>
	<path id="path46" class="st1" d="M171.6,16.5h-27.9v31.8h27.9c9.6,0,16.3-5.1,16.3-15.8C187.9,22.1,181.3,16.5,171.6,16.5z
		 M181.3,61l19.6,40.4h-16.6l-19-39.2h-21.6v39.2h-14.1v-99h42c16.7,0,30.8,9.2,30.8,29.6C202.4,47.8,194.3,57.6,181.3,61"/>
	<g>
		<defs>
			<rect id="SVGID_7_" x="220" y="0.9" width="82" height="102"/>
		</defs>
		<clipPath id="SVGID_8_">
			<use xlink:href="#SVGID_7_"  style="overflow:visible;"/>
		</clipPath>
		<g id="g48" class="st4">
			<path id="path50" class="st1" d="M260.6,15.7c-16.7,0-25.9,14-25.9,36.2s9.2,36.2,25.9,36.2c16.8,0,26-14,26-36.2
				S277.4,15.7,260.6,15.7z M260.6,103c-24.8,0-40.5-21.1-40.5-51.1s15.7-51.1,40.5-51.1c24.9,0,40.6,21.1,40.6,51.1
				S285.5,103,260.6,103"/>
		</g>
	</g>
	<g>
		<defs>
			<rect id="SVGID_9_" x="316" y="0.9" width="70.1" height="102"/>
		</defs>
		<clipPath id="SVGID_10_">
			<use xlink:href="#SVGID_9_"  style="overflow:visible;"/>
		</clipPath>
		<g id="g52" class="st5">
			<path id="path54" class="st1" d="M350.6,103c-14,0-26-6.2-34.1-16l10.3-10.3c6.4,7.2,15.9,11.7,24.9,11.7
				c13.4,0,19.8-4.8,19.8-14.4c0-7.6-5.6-11.5-21.6-16.4c-20.3-6.2-30-11.5-30-29.1c0-17.1,14-27.6,31.6-27.6c13,0,22.9,5,31.3,13.4
				l-10.1,10.6c-6-6.4-12.9-9.5-22.3-9.5c-11.2,0-16,5.7-16,12.3c0,6.9,4.4,10.3,20.9,15.4c18.9,5.9,30.7,12.2,30.7,29.8
				C386.1,90.8,375.1,103,350.6,103"/>
		</g>
	</g>
</g>
</svg>
