<?xml version="1.0" encoding="utf-8"?>
<!-- Generator: Adobe Illustrator 23.0.1, SVG Export Plug-In . SVG Version: 6.00 Build 0)  -->
<svg version="1.1" id="Layer_1" xmlns="http://www.w3.org/2000/svg" xmlns:xlink="http://www.w3.org/1999/xlink" x="0px" y="0px"
	 viewBox="0 0 24 24" style="enable-background:new 0 0 24 24;" xml:space="preserve">
<style type="text/css">
	.st0{fill:#FFFFFF;}
</style>
<title>Unity icon</title>
<path class="st0" d="M19.9,19.2L15.6,12l4.3-7.2L22,12L19.9,19.2z M10.4,18.5L5,13.2h8.6l4.3,7.2C17.9,20.4,10.4,18.5,10.4,18.5z
	 M10.4,5.4l7.5-1.9l-4.3,7.2H4.9C4.9,10.8,10.4,5.4,10.4,5.4z M21.4,0l-9.8,2.5L10.1,5H7.2L0,12l7.2,7h2.9l1.4,2.5l9.8,2.5l2.6-9.5
	L22.5,12L24,9.5C24,9.5,21.4,0,21.4,0z"/>
</svg>
