<?xml version="1.0" encoding="utf-8"?>
<!-- Generator: Adobe Illustrator 23.0.1, SVG Export Plug-In . SVG Version: 6.00 Build 0)  -->
<svg version="1.1" id="Layer_1" xmlns="http://www.w3.org/2000/svg" xmlns:xlink="http://www.w3.org/1999/xlink" x="0px" y="0px"
	 viewBox="0 0 24 24" style="enable-background:new 0 0 24 24;" xml:space="preserve">
<style type="text/css">
	.st0{fill:#FFFFFF;}
</style>
<title>C icon</title>
<path class="st0" d="M17,9.2c0,0-0.4-3.3-4-3.4C9.5,5.7,7.7,8.3,7.7,12s2,6.6,5.5,6.6c3.5,0,3.9-3.7,3.9-3.7l6.7,0.4
	c0,0,0.4,3.3-2.4,5.8c-2.8,2.5-6.2,2.9-8.6,2.9c-2.4,0-5.7,0-8.9-3c-3.2-3-3.7-5.9-3.7-8.8c0-2.9,0.6-6.7,4.4-9.5
	C7.1,0.8,9.7,0,12.3,0C23.2,0,24,9.3,24,9.3L17,9.2z"/>
</svg>
