<?xml version="1.0" encoding="utf-8"?>
<!-- Generator: Adobe Illustrator 23.0.1, SVG Export Plug-In . SVG Version: 6.00 Build 0)  -->
<svg version="1.1" id="Layer_1" xmlns="http://www.w3.org/2000/svg" xmlns:xlink="http://www.w3.org/1999/xlink" x="0px" y="0px"
	 viewBox="0 0 24 24" style="enable-background:new 0 0 24 24;" xml:space="preserve">
<style type="text/css">
	.st0{fill:#FFFFFF;}
</style>
<title>C++ icon</title>
<path class="st0" d="M22.4,6c-0.2-0.3-0.4-0.5-0.7-0.7l-8.8-5.1c-0.5-0.3-1.3-0.3-1.8,0L2.3,5.3c-0.5,0.3-0.9,1-0.9,1.6v10.2
	c0,0.3,0.1,0.6,0.3,0.9c0.2,0.3,0.4,0.5,0.7,0.7l8.8,5.1c0.5,0.3,1.3,0.3,1.8,0l8.8-5.1c0.3-0.1,0.5-0.4,0.7-0.7s0.3-0.6,0.3-0.9
	V6.9C22.7,6.6,22.6,6.3,22.4,6z M12,19.1c-3.9,0-7.1-3.2-7.1-7.1S8.1,4.9,12,4.9c2.5,0,4.9,1.4,6.2,3.6l-3.1,1.8
	c-0.6-1.1-1.8-1.8-3.1-1.8c-2,0-3.6,1.6-3.6,3.6s1.6,3.6,3.6,3.6c1.3,0,2.4-0.7,3.1-1.8l3.1,1.8C16.9,17.8,14.5,19.1,12,19.1z
	 M19.1,12.4h-0.8v0.8h-0.8v-0.8h-0.8v-0.8h0.8v-0.8h0.8v0.8h0.8V12.4z M22.1,12.4h-0.8v0.8h-0.8v-0.8h-0.8v-0.8h0.8v-0.8h0.8v0.8
	h0.8V12.4z"/>
</svg>
