<?xml version="1.0" encoding="utf-8"?>
<!-- Generator: Adobe Illustrator 23.0.1, SVG Export Plug-In . SVG Version: 6.00 Build 0)  -->
<svg version="1.1" id="Layer_1" xmlns="http://www.w3.org/2000/svg" xmlns:xlink="http://www.w3.org/1999/xlink" x="0px" y="0px"
	 viewBox="0 0 24 24" style="enable-background:new 0 0 24 24;" xml:space="preserve">
<style type="text/css">
	.st0{fill:#FFFFFF;}
</style>
<title>Gradle icon</title>
<path class="st0" d="M22.7,4.3c-1.5-1.5-3.8-1.5-5.3-0.1c-0.1,0.1-0.1,0.2-0.1,0.3c0,0.1,0,0.2,0.1,0.3l0.5,0.5
	c0.1,0.1,0.3,0.1,0.5,0c0.4-0.3,0.8-0.4,1.3-0.4c1.2,0,2.2,1,2.2,2.2c0,0.6-0.2,1.1-0.6,1.5c-3,3-7.1-5.4-16.2-1.1
	c-0.6,0.3-0.9,1-0.6,1.6v0.1L6,11.9c0.3,0.6,1.1,0.8,1.7,0.5L8.4,12c0.8-0.5,1.5-1,2.2-1.6c0.1-0.1,0.4-0.1,0.5,0
	c0.2,0.1,0.2,0.3,0.1,0.5L11.1,11c-0.7,0.6-1.5,1.2-2.3,1.7L8.1,13c-0.3,0.2-0.6,0.3-1,0.3c-0.7,0-1.4-0.4-1.7-1L3.9,9.7
	c-2.8,2-4.6,5.9-3.6,10.8c0,0.2,0.2,0.3,0.4,0.3h1.7c0.2,0,0.3-0.1,0.4-0.3c0.2-1.4,1.4-2.3,2.8-2.1c1.1,0.1,2,1,2.1,2.1
	c0,0.2,0.2,0.3,0.4,0.3h1.6c0.2,0,0.3-0.1,0.4-0.3c0.2-1.4,1.4-2.3,2.8-2.1c1.1,0.1,2,1,2.1,2.1c0,0.2,0.2,0.3,0.4,0.3H17
	c0.2,0,0.4-0.2,0.4-0.4c0-2.3,0.7-4.9,2.4-6.2C25.7,9.6,24.1,5.7,22.7,4.3z M16.5,11.2l-1.2-0.6c0-0.4,0.3-0.7,0.7-0.7
	s0.7,0.3,0.7,0.7C16.8,10.9,16.7,11.1,16.5,11.2z"/>
</svg>
