<?xml version="1.0" encoding="utf-8"?>
<!-- Generator: Adobe Illustrator 23.0.1, SVG Export Plug-In . SVG Version: 6.00 Build 0)  -->
<svg version="1.1" id="Layer_1" xmlns="http://www.w3.org/2000/svg" xmlns:xlink="http://www.w3.org/1999/xlink" x="0px" y="0px"
	 viewBox="0 0 24 24" style="enable-background:new 0 0 24 24;" xml:space="preserve">
<style type="text/css">
	.st0{fill:#FFFFFF;}
</style>
<title>Adobe Premiere icon</title>
<path class="st0" d="M0,0.3v23.4h24V0.3H0z M1,1.3h22v21.4H1V1.3z M6.3,5.8c0-0.1,0-0.1,0.1-0.1C7,5.6,8,5.6,9,5.6
	c2.8,0,4,1.5,4,3.5c0,2.5-1.8,3.6-4.1,3.6c-0.4,0-0.5,0-0.8,0v3.8c0,0.1,0,0.1-0.1,0.1H6.4c-0.1,0-0.1,0-0.1-0.1V5.8z M8.1,11.1
	c0.2,0,0.4,0,0.8,0c1.2,0,2.3-0.4,2.3-2c0-1.3-0.8-1.9-2.1-1.9c-0.4,0-0.8,0-1,0V11.1z M14.5,10.2c0-0.1,0-0.4,0-1
	c0-0.1,0-0.1,0.1-0.1c1.2-0.4,2.4-0.7,3.7-0.7c0.1,0,0.1,0,0.1,0.1v1.5c0,0.1,0,0.1-0.1,0.1c-0.6,0-1.3,0-1.9,0.2v6.3
	c0,0.1,0,0.1-0.1,0.1h-1.6c-0.1,0-0.1,0-0.1-0.1L14.5,10.2z"/>
</svg>
