<?xml version="1.0" encoding="utf-8"?>
<!-- Generator: Adobe Illustrator 23.0.1, SVG Export Plug-In . SVG Version: 6.00 Build 0)  -->
<svg version="1.1" id="Layer_1" xmlns="http://www.w3.org/2000/svg" xmlns:xlink="http://www.w3.org/1999/xlink" x="0px" y="0px"
	 viewBox="0 0 2500 2500" style="enable-background:new 0 0 2500 2500;" xml:space="preserve">
<style type="text/css">
	.st0{fill:#6A1577;}
	.st1{fill:#FFFFFF;}
</style>
<path class="st0" d="M933.3,1429.4c63.1,109.8,181,183.8,316,183.8c136.3,0,254.9-74.6,317.3-185.8l-313.9-181.7L933.3,1429.4z"/>
<g>
	<path class="st1" d="M2323.4,629.2c-17.6-31.2-44.1-57-79.3-77.3c-292.9-168.8-586.5-337.7-879.4-506.5
		c-79.3-45.4-155.3-44.1-233.9,2C1014,116,429.5,450.9,256,551.9C184.1,593.3,149.5,657,149.5,739.8v1019.8
		c0,40.7,8.8,76.6,25.8,107.8c17.6,31.9,44.8,59,80.7,80c174.3,101,758.1,435.3,874.7,504.5c78.7,46.1,155.3,48.1,233.9,2
		c292.9-169.5,586.5-337.7,879.4-506.5c36.6-21,63.1-47.5,80.7-80c17-31.2,25.8-67.1,25.8-107.8l0-1020.5
		C2350.5,697.7,2341.7,660.4,2323.4,629.2z M1249.3,1979.9c-271.2,0-508.5-147.8-634.7-366.8c-61.7-107.1-97-231.9-97-364.1
		c0-403.4,326.8-730.9,730.9-730.9c270.5,0,506.5,147.1,633.3,365.5l-318,183.1c-63.1-108.5-180.4-181.7-314.6-181.7
		c-201.4,0-364.1,162.7-364.1,364.1c0,65.8,17.6,126.8,48.1,180.4c62.4,109.8,180.4,183.8,316,183.8c136.3,0,255-75.3,317.3-185.8
		l318,183.8C1758.5,1831.4,1521.2,1979.9,1249.3,1979.9z M2188.4,1295.1l0,72.6h-59v59h-72.6v-59h-88.1v59h-72.6v-59h-58.3v-72.6
		h58.3v-87.5h-58.3v-72.6h58.3v-59h72.6v59h88.1v-59h72.6v59h59l0,72.6h-59v87.5H2188.4z"/>
	<rect x="1968.7" y="1207.6" class="st1" width="88.1" height="87.5"/>
</g>
</svg>
